<svg xmlns="http://www.w3.org/2000/svg" width="27" height="32" viewBox="0 0 27 32">
  <g id="icn_fluxo_customer-support.png_200_icn_fluxo_customer-support_2x.png" data-name="icn_fluxo_customer-support.png, 200% icn_fluxo_customer-support@2x.png" transform="translate(-6.136 -3.692)">
    <path id="Path_7" data-name="Path 7" d="M19.636,3.692a13.564,13.564,0,0,0-13.5,13.538v7.385a3.706,3.706,0,0,0,2.455,3.462s1.683.23,2.455.23H13.5V17.231H8.591a11.045,11.045,0,1,1,22.091,0H25.773V28.308h3.682a3.706,3.706,0,0,0,3.682-3.692V17.231A13.564,13.564,0,0,0,19.636,3.692Zm-8.591,16v6.154H9.818a1.225,1.225,0,0,1-1.227-1.231V19.692Zm19.636,4.923a1.225,1.225,0,0,1-1.227,1.231H28.227V19.692h2.455Z" fill="#4d5bed"/>
    <path id="Path_8" data-name="Path 8" d="M8.591,28.308a6.17,6.17,0,0,0,6.136,6.154H16.3a2.432,2.432,0,0,0,2.11,1.231h2.455a2.462,2.462,0,0,0,0-4.923H18.409A2.432,2.432,0,0,0,16.3,32H14.727a3.688,3.688,0,0,1-3.682-3.692c-.772,0-2.455-.23-2.455-.23Z" fill="#7ac8f4"/>
  </g>
</svg>
