<svg xmlns="http://www.w3.org/2000/svg" width="20.993" height="17" viewBox="0 0 20.993 17">
  <path id="twitter" d="M1169.989,5758a8.613,8.613,0,0,1-2.469.69,4.3,4.3,0,0,0,1.887-2.38,8.683,8.683,0,0,1-2.729,1.05,4.246,4.246,0,0,0-3.171-1.359,4.292,4.292,0,0,0-4.285,4.29,4.444,4.444,0,0,0,.11.979,12.251,12.251,0,0,1-8.871-4.48,4.264,4.264,0,0,0,1.335,5.71,4.271,4.271,0,0,1-1.957-.5v.03a4.3,4.3,0,0,0,3.452,4.21,4.235,4.235,0,0,1-1.937.07,4.292,4.292,0,0,0,4.014,2.98,8.569,8.569,0,0,1-5.349,1.84,8.771,8.771,0,0,1-1.023-.06,12.255,12.255,0,0,0,18.855-10.28c0-.19,0-.37-.01-.56A8.578,8.578,0,0,0,1169.989,5758Z" transform="translate(-1148.996 -5756)" fill="#939eb8"/>
</svg>
