<svg xmlns="http://www.w3.org/2000/svg" width="20" height="20" viewBox="0 0 20 20">
  <path id="instagram" d="M1190.8,5753h8.4a5.8,5.8,0,0,1,5.8,5.8v8.4a5.8,5.8,0,0,1-5.8,5.8h-8.4a5.8,5.8,0,0,1-5.8-5.8v-8.4a5.8,5.8,0,0,1,5.8-5.8m-.2,2a3.6,3.6,0,0,0-3.6,3.6h0v8.8a3.6,3.6,0,0,0,3.6,3.6h8.8a3.6,3.6,0,0,0,3.6-3.6h0v-8.8a3.6,3.6,0,0,0-3.6-3.6h-8.8m9.65,1.5a1.25,1.25,0,1,1-1.25,1.25,1.25,1.25,0,0,1,1.25-1.25M1195,5758a5,5,0,1,1-5,5,5,5,0,0,1,5-5m0,2a3,3,0,1,0,3,3A3,3,0,0,0,1195,5760Z" transform="translate(-1185 -5753)" fill="#939eb8"/>
</svg>
