<svg xmlns="http://www.w3.org/2000/svg" width="28" height="26" viewBox="0 0 28 26">
  <g id="icn_fluxo_speaker.png_200_icn_fluxo_speaker_2x.png" data-name="icn_fluxo_speaker.png, 200% icn_fluxo_speaker@2x.png" transform="translate(-4.421 -4.333)">
    <g id="Group_1" data-name="Group 1">
      <path id="Path_5" data-name="Path 5" d="M13.263,14.444v5.778H7.368V14.444h5.895m2.947-2.889H7.368a2.927,2.927,0,0,0-2.947,2.889v5.778a2.927,2.927,0,0,0,2.947,2.889h8.842V11.556Z" fill="#4d5bed"/>
    </g>
    <rect id="Rectangle_9" data-name="Rectangle 9" width="2.947" height="10.111" transform="translate(10.316 20.222)" fill="#4d5bed"/>
    <path id="Path_6" data-name="Path 6" d="M32.421,17.333a2.867,2.867,0,0,0-1.474-2.489V4.333H28L26.526,7.222,13.263,11.556V23.111l13.263,4.333L28,30.333h2.947V19.822A2.867,2.867,0,0,0,32.421,17.333ZM28,24.881l-.542-.178L16.211,21.028v-7.39L27.458,9.964,28,9.786Z" fill="#7ac8f4"/>
  </g>
</svg>
