<svg xmlns="http://www.w3.org/2000/svg" width="38" height="22" viewBox="0 0 38 22">
  <g id="icn_fluxo_group-users.png_200_icn_fluxo_group-users_2x.png" data-name="icn_fluxo_group-users.png, 200% icn_fluxo_group-users@2x.png" transform="translate(-1.353 -11.647)">
    <path id="Path_1" data-name="Path 1" d="M31.21,28.471c-2.965,0-6.772,1.764-7.867,3.121a1.28,1.28,0,0,0,1.079,2.055H38a1.28,1.28,0,0,0,1.079-2.055C37.983,30.234,34.175,28.471,31.21,28.471Z" fill="#4d5bed"/>
    <path id="Path_2" data-name="Path 2" d="M9.5,28.471c-2.965,0-6.772,1.764-7.867,3.121a1.28,1.28,0,0,0,1.079,2.055H16.285a1.28,1.28,0,0,0,1.079-2.055C16.27,30.234,12.462,28.471,9.5,28.471Z" fill="#4d5bed"/>
    <ellipse id="Ellipse_1" data-name="Ellipse 1" cx="4.071" cy="3.882" rx="4.071" ry="3.882" transform="translate(27.142 18.118)" fill="#7ac8f4"/>
    <ellipse id="Ellipse_2" data-name="Ellipse 2" cx="4.071" cy="3.882" rx="4.071" ry="3.882" transform="translate(5.428 18.118)" fill="#7ac8f4"/>
    <ellipse id="Ellipse_3" data-name="Ellipse 3" cx="4.071" cy="3.882" rx="4.071" ry="3.882" transform="translate(16.285 11.647)" fill="#7ac8f4"/>
  </g>
</svg>
