<svg xmlns="http://www.w3.org/2000/svg" width="1306.011" height="224.997" viewBox="0 0 1306.011 224.997">
  <g id="pattern" transform="translate(-67.989 -4929.992)">
    <path id="Rectangle_3" data-name="Rectangle 3" d="M67.989,4939.317l8.693-2.329,2.329,8.693-8.693,2.329Z" fill="#23177b"/>
    <path id="Rectangle_3_copy" data-name="Rectangle 3 copy" d="M675.694,5094.319l4.987-2.626,2.626,4.987-4.987,2.625Z" fill="#23177b"/>
    <path id="Rectangle_3_copy_2" data-name="Rectangle 3 copy 2" d="M735.343,5135.646l11.809,7.533-7.532,11.81-11.81-7.532Z" fill="#5dcbfa"/>
    <path id="Rectangle_3_copy_3" data-name="Rectangle 3 copy 3" d="M983.839,4929.992l9.158,5.842-5.841,9.158L978,4939.149Z" fill="#5dcbfa"/>
    <circle id="Ellipse_3" data-name="Ellipse 3" cx="8" cy="8" r="8" transform="translate(1049 5023)" fill="#23177b"/>
    <circle id="Ellipse_3_copy" data-name="Ellipse 3 copy" cx="5" cy="5" r="5" transform="translate(1228 4938)" fill="#23177b"/>
    <circle id="Ellipse_3_copy_2" data-name="Ellipse 3 copy 2" cx="2.5" cy="2.5" r="2.5" transform="translate(1369 5048)" fill="#5dcbfa"/>
    <circle id="Ellipse_2" data-name="Ellipse 2" cx="3" cy="3" r="3" transform="translate(126 5042)" fill="#5dcbfa"/>
    <circle id="Ellipse_2_copy" data-name="Ellipse 2 copy" cx="10.5" cy="10.5" r="10.5" transform="translate(323 4930)" fill="#4a5cf6"/>
    <circle id="Ellipse_2_copy_2" data-name="Ellipse 2 copy 2" cx="4.5" cy="4.5" r="4.5" transform="translate(249 5061)" fill="#23177b"/>
  </g>
</svg>
